<svg width="352.951953125px" height="91.04000091552734px" xmlns="http://www.w3.org/2000/svg" viewBox="73.5240234375 29.479999542236328 352.951953125 91.04000091552734" style="background: rgba(0, 0, 0, 0);" preserveAspectRatio="xMidYMid"><defs><linearGradient id="editing-shiny-gradient" x1="0.04322727117869957" x2="0.9567727288213004" y1="0.2966316784620999" y2="0.7033683215379001" gradientUnits="objectBoundingBox"><stop offset="0.0" stop-color="#ffb200"></stop><stop offset="0.5" stop-color="#e10057"></stop><stop offset="1.0" stop-color="#5A1A80"></stop></linearGradient><linearGradient id="editing-shiny-gradient2" x1="0" x2="0" y1="0" y2="1"><stop offset="0.2" stop-color="#fff" stop-opacity="0.8"></stop><stop offset="0.8" stop-color="#fff" stop-opacity="0"></stop></linearGradient><filter id="editing-shiny2" x="-100%" y="-100%" width="300%" height="300%"><feMorphology operator="erode" radius="2"></feMorphology></filter><filter id="editing-shiny" x="-100%" y="-100%" width="300%" height="300%"><feFlood flood-color="#fff" result="flood"></feFlood><feConvolveMatrix in="SourceGraphic" result="conv" order="8,8" divisor="1" kernelMatrix="0 0 0 0 0 0 0 0 0 0 0 1 1 0 0 0 0 0 0 1 1 0 0 0 0 0 1 0 0 1 0 0 0 0 1 0 0 1 0 0 0 1 0 0 0 0 1 0 0 1 1 0 0 1 1 0 0 0 0 1 1 0 0 0 "></feConvolveMatrix><feOffset dx="0" dy="4" in="conv" result="offset"></feOffset><feComposite operator="in" in="flood" in2="offset" result="comp"></feComposite><feGaussianBlur in="offset" stdDeviation="3" result="shadow"></feGaussianBlur><feColorMatrix in="shadow" type="matrix" values="0.7 0 0 0 0  0 0.7 0 0 0  0 0 0.7 0 0  0 0 0 0.3 0" result="dark-shadow"></feColorMatrix><feOffset dx="0" dy="4" in="dark-shadow" result="offset-shadow"></feOffset><feOffset dx="0" dy="2" in="conv" result="offset-2"></feOffset><feComposite operator="out" in="offset" in2="offset-2" result="edge-diff"></feComposite><feGaussianBlur in="edge-diff" stdDeviation="1" result="edge-blur"></feGaussianBlur><feColorMatrix in="edge-blur" result="edge-shadow" type="matrix" values="0 0 0 0 0  0 0 0 0 0  0 0 0 0 0  0 0 0 0.5 0"></feColorMatrix><feComposite operator="in" in="edge-shadow" in2="offset" result="edge-shadow-in"></feComposite><feOffset dx="0" dy="1" in="edge-shadow-in" result="edge-shadow-final"></feOffset><feMerge result="out"><feMergeNode in="offset-shadow"></feMergeNode><feMergeNode in="comp"></feMergeNode><feMergeNode in="edge-shadow-final"></feMergeNode><feMergeNode in="SourceGraphic"></feMergeNode></feMerge></filter></defs><g filter="url(#editing-shiny)"><g transform="translate(129.13463559746742, 91.87500190734863)"><path d="M18.36-30.02L18.36-30.02L18.36-30.02Q29.38-30.02 29.38-22.23L29.38-22.23L29.38-22.23Q29.38-17.95 26.64-15.39L26.64-15.39L26.64-15.39Q23.94-12.82 19.21-12.82L19.21-12.82L19.21-12.82Q17.01-12.82 15.30-14.08L15.30-14.08L15.30-14.08Q14.49-14.63 13.95-15.34L13.95-15.34L13.95-15.34Q17.23-15.34 18.97-17.35L18.97-17.35L18.97-17.35Q20.70-19.35 20.70-23.27L20.70-23.27L20.70-23.27Q20.70-27.18 16.83-27.18L16.83-27.18L15.75-27.18L15.75-27.18Q15.48-27.18 15.25-27.13L15.25-27.13L10.08 0L0.32 0L5.85-29.47L5.85-29.47Q10.66-29.92 13.46-29.97L13.46-29.97L13.46-29.97Q16.25-30.02 18.36-30.02ZM47.83-7.60L47.83-7.60L47.83-7.60Q48.96-6.84 48.96-5.15L48.96-5.15L48.96-5.15Q48.96-3.46 48.10-2.38L48.10-2.38L48.10-2.38Q47.25-1.30 45.85-0.58L45.85-0.58L45.85-0.58Q42.97 0.90 39.87 0.90L39.87 0.90L39.87 0.90Q36.77 0.90 34.94 0.22L34.94 0.22L34.94 0.22Q33.12-0.45 31.90-1.71L31.90-1.71L31.90-1.71Q29.52-4.09 29.52-8.46L29.52-8.46L29.52-8.46Q29.52-15.25 33.21-19.39L33.21-19.39L33.21-19.39Q37.17-23.85 44.05-23.85L44.05-23.85L44.05-23.85Q48.33-23.85 50.44-22.05L50.44-22.05L50.44-22.05Q52.02-20.70 52.02-18.50L52.02-18.50L52.02-18.50Q52.02-10.57 38.34-10.57L38.34-10.57L38.34-10.57Q38.16-9.40 38.16-8.41L38.16-8.41L38.16-8.41Q38.16-6.34 39.08-5.56L39.08-5.56L39.08-5.56Q40.00-4.77 41.71-4.77L41.71-4.77L41.71-4.77Q43.42-4.77 45.25-5.56L45.25-5.56L45.25-5.56Q47.07-6.34 47.83-7.60ZM38.66-12.51L38.66-12.51L38.66-12.51Q41.85-12.51 43.70-14.49L43.70-14.49L43.70-14.49Q45.54-16.38 45.54-19.39L45.54-19.39L45.54-19.39Q45.54-20.43 45.16-20.99L45.16-20.99L45.16-20.99Q44.77-21.55 44.01-21.55L44.01-21.55L44.01-21.55Q43.24-21.55 42.59-21.26L42.59-21.26L42.59-21.26Q41.94-20.97 41.27-19.98L41.27-19.98L41.27-19.98Q39.60-17.73 38.66-12.51ZM67.63-12.64L67.63-12.64L67.63-12.64Q69.25-15.52 69.25-18.45L69.25-18.45L69.25-18.45Q69.25-20.38 67.86-20.38L67.86-20.38L67.86-20.38Q66.78-20.38 65.66-18.54L65.66-18.54L65.66-18.54Q64.48-16.70 64.13-14.31L64.13-14.31L61.78 0L52.47 0.90L57.06-22.95L64.48-23.85L63.67-19.30L63.67-19.30Q65.88-23.85 70.83-23.85L70.83-23.85L70.83-23.85Q73.44-23.85 74.86-22.50L74.86-22.50L74.86-22.50Q76.27-21.15 76.27-18.38L76.27-18.38L76.27-18.38Q76.27-15.62 74.45-13.86L74.45-13.86L74.45-13.86Q72.63-12.11 69.52-12.11L69.52-12.11L69.52-12.11Q68.17-12.11 67.63-12.64ZM97.47-23.85L97.47-23.85L97.47-23.85Q93.82-23.85 91.17-25.06L91.17-25.06L89.73-17.77L98.41-17.77L98.41-17.77Q98.41-15.39 97.22-13.88L97.22-13.88L97.22-13.88Q96.03-12.38 93.87-12.38L93.87-12.38L93.87-12.38Q91.53-12.38 89.37-13.23L89.37-13.23L89.37-13.23Q88.92-13.41 88.87-13.46L88.87-13.46L86.31 0L76.50 0L82.21-29.70L102.28-29.70L102.28-29.70Q102.28-26.95 101.00-25.40L101.00-25.40L101.00-25.40Q99.72-23.85 97.47-23.85ZM119.07-7.60L119.07-7.60L119.07-7.60Q120.19-6.84 120.19-5.15L120.19-5.15L120.19-5.15Q120.19-3.46 119.34-2.38L119.34-2.38L119.34-2.38Q118.48-1.30 117.09-0.58L117.09-0.58L117.09-0.58Q114.21 0.90 111.10 0.90L111.10 0.90L111.10 0.90Q108.00 0.90 106.18 0.22L106.18 0.22L106.18 0.22Q104.35-0.45 103.14-1.71L103.14-1.71L103.14-1.71Q100.75-4.09 100.75-8.46L100.75-8.46L100.75-8.46Q100.75-15.25 104.44-19.39L104.44-19.39L104.44-19.39Q108.40-23.85 115.29-23.85L115.29-23.85L115.29-23.85Q119.56-23.85 121.68-22.05L121.68-22.05L121.68-22.05Q123.25-20.70 123.25-18.50L123.25-18.50L123.25-18.50Q123.25-10.57 109.57-10.57L109.57-10.57L109.57-10.57Q109.39-9.40 109.39-8.41L109.39-8.41L109.39-8.41Q109.39-6.34 110.32-5.56L110.32-5.56L110.32-5.56Q111.24-4.77 112.95-4.77L112.95-4.77L112.95-4.77Q114.66-4.77 116.48-5.56L116.48-5.56L116.48-5.56Q118.30-6.34 119.07-7.60ZM109.89-12.51L109.89-12.51L109.89-12.51Q113.08-12.51 114.93-14.49L114.93-14.49L114.93-14.49Q116.77-16.38 116.77-19.39L116.77-19.39L116.77-19.39Q116.77-20.43 116.39-20.99L116.39-20.99L116.39-20.99Q116.01-21.55 115.24-21.55L115.24-21.55L115.24-21.55Q114.48-21.55 113.83-21.26L113.83-21.26L113.83-21.26Q113.17-20.97 112.50-19.98L112.50-19.98L112.50-19.98Q110.83-17.73 109.89-12.51ZM146.88-18.72L146.88-18.72L146.88-18.72Q146.88-16.83 145.30-15.66L145.30-15.66L145.30-15.66Q143.73-14.49 141.16-14.49L141.16-14.49L141.16-14.49Q140.08-14.49 139.45-14.80L139.45-14.80L139.45-14.80Q139.95-15.97 140.11-17.44L140.11-17.44L140.11-17.44Q140.26-18.90 140.26-19.30L140.26-19.30L140.26-19.30Q140.26-21.20 138.96-21.20L138.96-21.20L138.96-21.20Q138.06-21.20 137.05-20.07L137.05-20.07L137.05-20.07Q136.03-18.95 135.18-17.19L135.18-17.19L135.18-17.19Q133.29-13.14 133.29-9.04L133.29-9.04L133.29-9.04Q133.29-6.79 134.14-5.78L134.14-5.78L134.14-5.78Q135.00-4.77 136.89-4.77L136.89-4.77L136.89-4.77Q139.50-4.77 141.57-6.93L141.57-6.93L141.57-6.93Q142.15-7.60 142.47-8.37L142.47-8.37L142.47-8.37Q144.18-7.47 144.18-5.00L144.18-5.00L144.18-5.00Q144.18-2.48 141.39-0.81L141.39-0.81L141.39-0.81Q138.51 0.90 133.92 0.90L133.92 0.90L133.92 0.90Q124.78 0.90 124.78-8.78L124.78-8.78L124.78-8.78Q124.78-15.84 128.79-19.89L128.79-19.89L128.79-19.89Q132.66-23.85 139.77-23.85L139.77-23.85L139.77-23.85Q146.88-23.85 146.88-18.72ZM151.69-21.91L151.69-21.91L151.69-21.91Q150.16-23.09 150.16-25.58L150.16-25.58L150.16-25.58Q150.16-28.08 151.81-29.38L151.81-29.38L151.81-29.38Q153.45-30.69 156.28-30.69L156.28-30.69L156.28-30.69Q158.08-30.69 162.36-30.06L162.36-30.06L165.42-29.61L165.42-29.61Q166.95-29.43 168.55-29.43L168.55-29.43L168.55-29.43Q170.14-29.43 171.22-30.11L171.22-30.11L171.22-30.11Q172.84-28.66 172.84-26.59L172.84-26.59L172.84-26.59Q172.84-24.52 171.00-23.04L171.00-23.04L171.00-23.04Q169.11-21.46 166.68-21.46L166.68-21.46L166.68-21.46Q165.51-21.46 163.62-21.78L163.62-21.78L163.62-21.78Q161.41-14.85 161.41-10.04L161.41-10.04L161.41-10.04Q161.41-5.22 163.84-2.70L163.84-2.70L163.84-2.70Q162.72-0.67 161.05 0.11L161.05 0.11L161.05 0.11Q159.39 0.90 156.89 0.90L156.89 0.90L156.89 0.90Q154.39 0.90 152.84-0.47L152.84-0.47L152.84-0.47Q151.29-1.84 151.29-4.68L151.29-4.68L151.29-4.68Q151.29-7.96 153.09-13.37L153.09-13.37L153.09-13.37Q154.89-18.72 157.59-22.81L157.59-22.81L157.59-22.81Q156.28-22.95 154.93-22.95L154.93-22.95L154.93-22.95Q152.14-22.95 151.69-21.91ZM201.15-23.85L201.15-23.85L201.15-23.85Q197.50-23.85 194.85-25.06L194.85-25.06L193.41-17.77L202.09-17.77L202.09-17.77Q202.09-15.39 200.90-13.88L200.90-13.88L200.90-13.88Q199.71-12.38 197.55-12.38L197.55-12.38L197.55-12.38Q195.21-12.38 193.05-13.23L193.05-13.23L193.05-13.23Q192.60-13.41 192.56-13.46L192.56-13.46L189.99 0L180.18 0L185.89-29.70L205.97-29.70L205.97-29.70Q205.97-26.95 204.68-25.40L204.68-25.40L204.68-25.40Q203.40-23.85 201.15-23.85ZM215.64-2.48L215.64-2.48L215.64-2.48Q214.24 0.90 209.79 0.90L209.79 0.90L209.79 0.90Q207.49 0.90 206.05-0.67L206.05-0.67L206.05-0.67Q204.84-2.07 204.84-3.46L204.84-3.46L204.84-3.46Q204.84-7.11 206.50-14.22L206.50-14.22L208.17-22.95L217.30-23.85L214.56-9.63L214.56-9.63Q213.79-6.30 213.79-5.13L213.79-5.13L213.79-5.13Q213.79-2.56 215.64-2.48ZM208.98-29.20L208.98-29.20L208.98-29.20Q208.98-30.96 210.44-31.90L210.44-31.90L210.44-31.90Q211.91-32.85 214.02-32.85L214.02-32.85L214.02-32.85Q216.13-32.85 217.42-31.90L217.42-31.90L217.42-31.90Q218.70-30.96 218.70-29.20L218.70-29.20L218.70-29.20Q218.70-27.45 217.28-26.55L217.28-26.55L217.28-26.55Q215.86-25.65 213.75-25.65L213.75-25.65L213.75-25.65Q211.63-25.65 210.31-26.55L210.31-26.55L210.31-26.55Q208.98-27.45 208.98-29.20ZM223.06-21.91L223.06-21.91L223.06-21.91Q221.53-23.09 221.53-25.58L221.53-25.58L221.53-25.58Q221.53-28.08 223.18-29.38L223.18-29.38L223.18-29.38Q224.82-30.69 227.66-30.69L227.66-30.69L227.66-30.69Q229.45-30.69 233.73-30.06L233.73-30.06L236.79-29.61L236.79-29.61Q238.32-29.43 239.92-29.43L239.92-29.43L239.92-29.43Q241.51-29.43 242.59-30.11L242.59-30.11L242.59-30.11Q244.21-28.66 244.21-26.59L244.21-26.59L244.21-26.59Q244.21-24.52 242.37-23.04L242.37-23.04L242.37-23.04Q240.48-21.46 238.05-21.46L238.05-21.46L238.05-21.46Q236.88-21.46 234.99-21.78L234.99-21.78L234.99-21.78Q232.78-14.85 232.78-10.04L232.78-10.04L232.78-10.04Q232.78-5.22 235.21-2.70L235.21-2.70L235.21-2.70Q234.09-0.67 232.42 0.11L232.42 0.11L232.42 0.11Q230.76 0.90 228.26 0.90L228.26 0.90L228.26 0.90Q225.76 0.90 224.21-0.47L224.21-0.47L224.21-0.47Q222.66-1.84 222.66-4.68L222.66-4.68L222.66-4.68Q222.66-7.96 224.46-13.37L224.46-13.37L224.46-13.37Q226.26-18.72 228.96-22.81L228.96-22.81L228.96-22.81Q227.66-22.95 226.30-22.95L226.30-22.95L226.30-22.95Q223.51-22.95 223.06-21.91Z" fill="url(#editing-shiny-gradient)"></path></g></g><g filter="url(#editing-shiny2)"><g transform="translate(129.2780605852604, 91.8749942779541)"><path d="M18.36-30.02L18.36-30.02L18.36-30.02Q29.38-30.02 29.38-22.23L29.38-22.23L29.38-22.23Q29.38-17.95 26.64-15.39L26.64-15.39L26.64-15.39Q23.94-12.82 19.21-12.82L19.21-12.82L19.21-12.82Q17.01-12.82 15.30-14.08L15.30-14.08L15.30-14.08Q14.49-14.63 13.95-15.34L13.95-15.34L13.95-15.34Q17.23-15.34 18.97-17.35L18.97-17.35L18.97-17.35Q20.70-19.35 20.70-23.27L20.70-23.27L20.70-23.27Q20.70-27.18 16.83-27.18L16.83-27.18L15.75-27.18L15.75-27.18Q15.48-27.18 15.25-27.13L15.25-27.13L10.08 0L0.32 0L5.85-29.47L5.85-29.47Q10.66-29.92 13.46-29.97L13.46-29.97L13.46-29.97Q16.25-30.02 18.36-30.02ZM47.83-7.60L47.83-7.60L47.83-7.60Q48.96-6.84 48.96-5.15L48.96-5.15L48.96-5.15Q48.96-3.46 48.10-2.38L48.10-2.38L48.10-2.38Q47.25-1.30 45.85-0.58L45.85-0.58L45.85-0.58Q42.97 0.90 39.87 0.90L39.87 0.90L39.87 0.90Q36.77 0.90 34.94 0.22L34.94 0.22L34.94 0.22Q33.12-0.45 31.90-1.71L31.90-1.71L31.90-1.71Q29.52-4.09 29.52-8.46L29.52-8.46L29.52-8.46Q29.52-15.25 33.21-19.39L33.21-19.39L33.21-19.39Q37.17-23.85 44.05-23.85L44.05-23.85L44.05-23.85Q48.33-23.85 50.44-22.05L50.44-22.05L50.44-22.05Q52.02-20.70 52.02-18.50L52.02-18.50L52.02-18.50Q52.02-10.57 38.34-10.57L38.34-10.57L38.34-10.57Q38.16-9.40 38.16-8.41L38.16-8.41L38.16-8.41Q38.16-6.34 39.08-5.56L39.08-5.56L39.08-5.56Q40.00-4.77 41.71-4.77L41.71-4.77L41.71-4.77Q43.42-4.77 45.25-5.56L45.25-5.56L45.25-5.56Q47.07-6.34 47.83-7.60ZM38.66-12.51L38.66-12.51L38.66-12.51Q41.85-12.51 43.70-14.49L43.70-14.49L43.70-14.49Q45.54-16.38 45.54-19.39L45.54-19.39L45.54-19.39Q45.54-20.43 45.16-20.99L45.16-20.99L45.16-20.99Q44.77-21.55 44.01-21.55L44.01-21.55L44.01-21.55Q43.24-21.55 42.59-21.26L42.59-21.26L42.59-21.26Q41.94-20.97 41.27-19.98L41.27-19.98L41.27-19.98Q39.60-17.73 38.66-12.51ZM67.63-12.64L67.63-12.64L67.63-12.64Q69.25-15.52 69.25-18.45L69.25-18.45L69.25-18.45Q69.25-20.38 67.86-20.38L67.86-20.38L67.86-20.38Q66.78-20.38 65.66-18.54L65.66-18.54L65.66-18.54Q64.48-16.70 64.13-14.31L64.13-14.31L61.78 0L52.47 0.90L57.06-22.95L64.48-23.85L63.67-19.30L63.67-19.30Q65.88-23.85 70.83-23.85L70.83-23.85L70.83-23.85Q73.44-23.85 74.86-22.50L74.86-22.50L74.86-22.50Q76.27-21.15 76.27-18.38L76.27-18.38L76.27-18.38Q76.27-15.62 74.45-13.86L74.45-13.86L74.45-13.86Q72.63-12.11 69.52-12.11L69.52-12.11L69.52-12.11Q68.17-12.11 67.63-12.64ZM97.47-23.85L97.47-23.85L97.47-23.85Q93.82-23.85 91.17-25.06L91.17-25.06L89.73-17.77L98.41-17.77L98.41-17.77Q98.41-15.39 97.22-13.88L97.22-13.88L97.22-13.88Q96.03-12.38 93.87-12.38L93.87-12.38L93.87-12.38Q91.53-12.38 89.37-13.23L89.37-13.23L89.37-13.23Q88.92-13.41 88.87-13.46L88.87-13.46L86.31 0L76.50 0L82.21-29.70L102.28-29.70L102.28-29.70Q102.28-26.95 101.00-25.40L101.00-25.40L101.00-25.40Q99.72-23.85 97.47-23.85ZM119.07-7.60L119.07-7.60L119.07-7.60Q120.19-6.84 120.19-5.15L120.19-5.15L120.19-5.15Q120.19-3.46 119.34-2.38L119.34-2.38L119.34-2.38Q118.48-1.30 117.09-0.58L117.09-0.58L117.09-0.58Q114.21 0.90 111.10 0.90L111.10 0.90L111.10 0.90Q108.00 0.90 106.18 0.22L106.18 0.22L106.18 0.22Q104.35-0.45 103.14-1.71L103.14-1.71L103.14-1.71Q100.75-4.09 100.75-8.46L100.75-8.46L100.75-8.46Q100.75-15.25 104.44-19.39L104.44-19.39L104.44-19.39Q108.40-23.85 115.29-23.85L115.29-23.85L115.29-23.85Q119.56-23.85 121.68-22.05L121.68-22.05L121.68-22.05Q123.25-20.70 123.25-18.50L123.25-18.50L123.25-18.50Q123.25-10.57 109.57-10.57L109.57-10.57L109.57-10.57Q109.39-9.40 109.39-8.41L109.39-8.41L109.39-8.41Q109.39-6.34 110.32-5.56L110.32-5.56L110.32-5.56Q111.24-4.77 112.95-4.77L112.95-4.77L112.95-4.77Q114.66-4.77 116.48-5.56L116.48-5.56L116.48-5.56Q118.30-6.34 119.07-7.60ZM109.89-12.51L109.89-12.51L109.89-12.51Q113.08-12.51 114.93-14.49L114.93-14.49L114.93-14.49Q116.77-16.38 116.77-19.39L116.77-19.39L116.77-19.39Q116.77-20.43 116.39-20.99L116.39-20.99L116.39-20.99Q116.01-21.55 115.24-21.55L115.24-21.55L115.24-21.55Q114.48-21.55 113.83-21.26L113.83-21.26L113.83-21.26Q113.17-20.97 112.50-19.98L112.50-19.98L112.50-19.98Q110.83-17.73 109.89-12.51ZM146.88-18.72L146.88-18.72L146.88-18.72Q146.88-16.83 145.30-15.66L145.30-15.66L145.30-15.66Q143.73-14.49 141.16-14.49L141.16-14.49L141.16-14.49Q140.08-14.49 139.45-14.80L139.45-14.80L139.45-14.80Q139.95-15.97 140.11-17.44L140.11-17.44L140.11-17.44Q140.26-18.90 140.26-19.30L140.26-19.30L140.26-19.30Q140.26-21.20 138.96-21.20L138.96-21.20L138.96-21.20Q138.06-21.20 137.05-20.07L137.05-20.07L137.05-20.07Q136.03-18.95 135.18-17.19L135.18-17.19L135.18-17.19Q133.29-13.14 133.29-9.04L133.29-9.04L133.29-9.04Q133.29-6.79 134.14-5.78L134.14-5.78L134.14-5.78Q135.00-4.77 136.89-4.77L136.89-4.77L136.89-4.77Q139.50-4.77 141.57-6.93L141.57-6.93L141.57-6.93Q142.15-7.60 142.47-8.37L142.47-8.37L142.47-8.37Q144.18-7.47 144.18-5.00L144.18-5.00L144.18-5.00Q144.18-2.48 141.39-0.81L141.39-0.81L141.39-0.81Q138.51 0.90 133.92 0.90L133.92 0.90L133.92 0.90Q124.78 0.90 124.78-8.78L124.78-8.78L124.78-8.78Q124.78-15.84 128.79-19.89L128.79-19.89L128.79-19.89Q132.66-23.85 139.77-23.85L139.77-23.85L139.77-23.85Q146.88-23.85 146.88-18.72ZM151.69-21.91L151.69-21.91L151.69-21.91Q150.16-23.09 150.16-25.58L150.16-25.58L150.16-25.58Q150.16-28.08 151.81-29.38L151.81-29.38L151.81-29.38Q153.45-30.69 156.28-30.69L156.28-30.69L156.28-30.69Q158.08-30.69 162.36-30.06L162.36-30.06L165.42-29.61L165.42-29.61Q166.95-29.43 168.55-29.43L168.55-29.43L168.55-29.43Q170.14-29.43 171.22-30.11L171.22-30.11L171.22-30.11Q172.84-28.66 172.84-26.59L172.84-26.59L172.84-26.59Q172.84-24.52 171.00-23.04L171.00-23.04L171.00-23.04Q169.11-21.46 166.68-21.46L166.68-21.46L166.68-21.46Q165.51-21.46 163.62-21.78L163.62-21.78L163.62-21.78Q161.41-14.85 161.41-10.04L161.41-10.04L161.41-10.04Q161.41-5.22 163.84-2.70L163.84-2.70L163.84-2.70Q162.72-0.67 161.05 0.11L161.05 0.11L161.05 0.11Q159.39 0.90 156.89 0.90L156.89 0.90L156.89 0.90Q154.39 0.90 152.84-0.47L152.84-0.47L152.84-0.47Q151.29-1.84 151.29-4.68L151.29-4.68L151.29-4.68Q151.29-7.96 153.09-13.37L153.09-13.37L153.09-13.37Q154.89-18.72 157.59-22.81L157.59-22.81L157.59-22.81Q156.28-22.95 154.93-22.95L154.93-22.95L154.93-22.95Q152.14-22.95 151.69-21.91ZM201.15-23.85L201.15-23.85L201.15-23.85Q197.50-23.85 194.85-25.06L194.85-25.06L193.41-17.77L202.09-17.77L202.09-17.77Q202.09-15.39 200.90-13.88L200.90-13.88L200.90-13.88Q199.71-12.38 197.55-12.38L197.55-12.38L197.55-12.38Q195.21-12.38 193.05-13.23L193.05-13.23L193.05-13.23Q192.60-13.41 192.56-13.46L192.56-13.46L189.99 0L180.18 0L185.89-29.70L205.97-29.70L205.97-29.70Q205.97-26.95 204.68-25.40L204.68-25.40L204.68-25.40Q203.40-23.85 201.15-23.85ZM215.64-2.48L215.64-2.48L215.64-2.48Q214.24 0.90 209.79 0.90L209.79 0.90L209.79 0.90Q207.49 0.90 206.05-0.67L206.05-0.67L206.05-0.67Q204.84-2.07 204.84-3.46L204.84-3.46L204.84-3.46Q204.84-7.11 206.50-14.22L206.50-14.22L208.17-22.95L217.30-23.85L214.56-9.63L214.56-9.63Q213.79-6.30 213.79-5.13L213.79-5.13L213.79-5.13Q213.79-2.56 215.64-2.48ZM208.98-29.20L208.98-29.20L208.98-29.20Q208.98-30.96 210.44-31.90L210.44-31.90L210.44-31.90Q211.91-32.85 214.02-32.85L214.02-32.85L214.02-32.85Q216.13-32.85 217.42-31.90L217.42-31.90L217.42-31.90Q218.70-30.96 218.70-29.20L218.70-29.20L218.70-29.20Q218.70-27.45 217.28-26.55L217.28-26.55L217.28-26.55Q215.86-25.65 213.75-25.65L213.75-25.65L213.75-25.65Q211.63-25.65 210.31-26.55L210.31-26.55L210.31-26.55Q208.98-27.45 208.98-29.20ZM223.06-21.91L223.06-21.91L223.06-21.91Q221.53-23.09 221.53-25.58L221.53-25.58L221.53-25.58Q221.53-28.08 223.18-29.38L223.18-29.38L223.18-29.38Q224.82-30.69 227.66-30.69L227.66-30.69L227.66-30.69Q229.45-30.69 233.73-30.06L233.73-30.06L236.79-29.61L236.79-29.61Q238.32-29.43 239.92-29.43L239.92-29.43L239.92-29.43Q241.51-29.43 242.59-30.11L242.59-30.11L242.59-30.11Q244.21-28.66 244.21-26.59L244.21-26.59L244.21-26.59Q244.21-24.52 242.37-23.04L242.37-23.04L242.37-23.04Q240.48-21.46 238.05-21.46L238.05-21.46L238.05-21.46Q236.88-21.46 234.99-21.78L234.99-21.78L234.99-21.78Q232.78-14.85 232.78-10.04L232.78-10.04L232.78-10.04Q232.78-5.22 235.21-2.70L235.21-2.70L235.21-2.70Q234.09-0.67 232.42 0.11L232.42 0.11L232.42 0.11Q230.76 0.90 228.26 0.90L228.26 0.90L228.26 0.90Q225.76 0.90 224.21-0.47L224.21-0.47L224.21-0.47Q222.66-1.84 222.66-4.68L222.66-4.68L222.66-4.68Q222.66-7.96 224.46-13.37L224.46-13.37L224.46-13.37Q226.26-18.72 228.96-22.81L228.96-22.81L228.96-22.81Q227.66-22.95 226.30-22.95L226.30-22.95L226.30-22.95Q223.51-22.95 223.06-21.91Z" fill="url(#editing-shiny-gradient2)"></path></g></g><style>text {
  font-size: 64px;
  font-family: Arial Black;
  dominant-baseline: central;
  text-anchor: middle;
}</style></svg>